<?xml version="1.0" encoding="utf-8"?>
<!-- Generator: Adobe Illustrator 16.0.0, SVG Export Plug-In . SVG Version: 6.00 Build 0)  -->
<!DOCTYPE svg PUBLIC "-//W3C//DTD SVG 1.1//EN" "http://www.w3.org/Graphics/SVG/1.1/DTD/svg11.dtd">
<svg version="1.1" id="Layer_1" xmlns="http://www.w3.org/2000/svg" xmlns:xlink="http://www.w3.org/1999/xlink" x="0px" y="0px"
	 width="351px" height="365px" viewBox="0 0 351 365" enable-background="new 0 0 351 365" xml:space="preserve">
<g id="Layer_1_1_">
</g>
<path fill="#F39E32" d="M226.948,212.538c0,0-0.635-156.875-0.652-161.679c-0.018-4.794-3.249-11.196-9.668-15.964
	c-28.89-17.487-52.925-23.792-72.146-26.918c-27.223-4.698-36.81,0.148-44.798,3.376C88.497,16.196,77.325,25.85,67.797,45.098
	c-1.576,6.41,0.04,11.204,4.867,14.418C74.267,61.088,226.948,212.538,226.948,212.538"/>
<path fill="#E84817" d="M249.418,225.262c0,0,28.814-0.148,32.011-0.157c4.808-0.018,11.191-4.816,12.764-9.659
	c6.335-16.051,9.497-28.854,11.038-41.661c3.144-16.021,6.27-33.645-0.211-51.224c-8.091-22.378-37.015-51.079-37.015-51.079
	c-6.429-4.781-11.245-9.563-17.663-14.335c-3.223-3.188-11.209,0.048-11.183,4.856c0.018,6.393,0.622,150.457,0.622,150.457
	C244.571,215.664,247.785,218.869,249.418,225.262"/>
<path fill="#6D4F9D" d="M249.449,233.248c-1.585,4.799-4.765,9.633-9.555,11.262l0.289,73.628c3.188-4.816,7.969-9.633,11.14-16.052
	c11.138-16.077,20.684-33.696,30.202-54.546c1.576-3.215-3.249-12.795-8.057-12.777
	C267.041,233.197,249.449,233.248,249.449,233.248"/>
<path fill="#5FC2D7" d="M161.897,355.277c9.626,4.764,19.242,7.924,25.64,6.287c11.191-1.638,25.562-11.297,39.888-28.968
	l-0.337-84.838c-1.607,0-1.607,0-3.209-1.585L161.897,355.277z"/>
<path fill="#E0E337" d="M73.334,225.963l140.859-0.569c-0.009-1.594-0.009-1.594,1.598-3.196c0,0-138.228-137.116-143.048-141.901
	c-6.43-6.379-14.429-4.742-14.39,3.262c-3.108,22.431-1.406,49.63,3.551,86.426C65.184,189.193,68.454,206.784,73.334,225.963"/>
<path fill="#53B66F" d="M153.874,350.503l63.578-110.713c-1.604-1.585-1.604-3.188-3.196-6.384l-137.663,0.552
	c8.101,25.588,19.416,49.546,33.896,71.902C126.565,326.597,141.032,340.958,153.874,350.503"/>
</svg>
